<svg xmlns="http://www.w3.org/2000/svg" viewBox="0 0 31 31" width="36" height="36" fill="#999999">
    <path d="M15.547 0C7.128 0 .277 6.851.277 15.27c0 7.268 5.107 13.363 11.921 14.896a5.309 5.309 0 01-1.541-2.879c-4.739-1.935-8.088-6.59-8.088-12.018 0-5.245 3.129-9.77 7.617-11.813-.178 1.013.582 2.18 1.447 3.227.783.947.447 1.662-.157 2.162a.588.588 0 00.366 1.042c7.777.116 9.667-4.306 10.098-5.904 3.929 2.233 6.583 6.454 6.583 11.286 0 5.139-3.003 9.59-7.346 11.691a5.322 5.322 0 01-1.363 2.967c6.348-1.852 11.001-7.72 11.001-14.658C30.817 6.851 23.966 0 15.547 0z"/><circle cx="11.476" cy="14.9" r="1.719"/><circle cx="19.498" cy="14.9" r="1.719"/><path d="M10.825 24.711a5.336 5.336 0 012.312-2.919c.086-1.406 1.238-2.521 2.65-2.521 1.368 0 2.494 1.044 2.64 2.388a5.343 5.343 0 012.541 3.074c.688-.717 1.093-1.587 1.093-2.524 0-2.454-2.755-4.442-6.152-4.442-3.398 0-6.153 1.988-6.153 4.442 0 .928.395 1.787 1.069 2.502z"/><path d="M16.485 24.55a1.879 1.879 0 00-1.231.016c.178.047.147.055-.038.014a1.89 1.89 0 00-1.21 1.76c0 .031.003.062.005.094a8.265 8.265 0 001.897.217c.65 0 1.276-.074 1.865-.209.001-.033.005-.066.005-.102a1.887 1.887 0 00-1.293-1.79zM15.837 20.059c-.959 0-1.779.59-2.121 1.426a5.266 5.266 0 014.216-.064 2.294 2.294 0 00-2.095-1.362z"/><path d="M15.894 21.588a4.758 4.758 0 00-4.752 4.752 4.758 4.758 0 004.752 4.752 4.758 4.758 0 004.751-4.752 4.757 4.757 0 00-4.751-4.752zm0 7.211c-1.357 0-2.46-1.104-2.46-2.459s1.104-2.46 2.46-2.46c1.355 0 2.459 1.104 2.459 2.46s-1.103 2.459-2.459 2.459z"/>
</svg>
