<svg xmlns="http://www.w3.org/2000/svg" viewBox="0 0 147 106" fill="#001040">
    <path d="M 138.9414 54.8594 C 138.9414 60.4858 134.7648 60.5482 134.7648 60.5482 L 129.4161 60.5482 L 129.4161 3.9122 C 130.3007 3.9122 131.588 3.9122 133.4354 3.9122 C 138.2455 3.9122 138.9414 10.3596 138.9414 10.3596 C 138.9414 10.3596 138.9414 49.2329 138.9414 54.8594 L 138.9414 54.8594 ZM 133.4354 1.9531 L 117.4531 1.9844 L 117.4531 3.8331 L 121.4401 3.8331 L 121.4401 102.8205 L 117.7375 102.8205 L 117.7375 104.6693 L 135.2545 104.6693 L 135.2545 102.8205 L 129.4161 102.8205 L 129.4161 62.7602 L 136.4098 62.7602 C 146.2205 62.7602 146.5382 53.5318 146.5382 53.5318 C 146.5382 53.5318 146.5382 22.6227 146.5382 12.3196 C 146.5382 2.0156 133.4354 1.9531 133.4354 1.9531 L 133.4354 1.9531 ZM 65.5636 60.2945 L 70.1713 16.9641 L 74.8274 60.2945 L 65.5636 60.2945 L 65.5636 60.2945 ZM 87.2293 102.6897 L 76.1528 1.9961 L 69.6019 1.9961 C 69.6019 1.9961 59.6324 97.5689 59.6324 98.7071 C 59.6324 99.7242 58.9668 102.2993 55.6718 102.6897 L 54.6479 102.6897 L 54.6479 102.7834 C 54.6317 102.7834 54.6161 102.7854 54.6005 102.7854 L 54.6479 102.7854 L 54.6479 104.5385 L 66.0411 104.5385 L 66.0411 102.6897 L 65.2088 102.6897 C 63.6707 102.5862 61.6264 101.5691 61.6264 98.5177 L 65.3671 62.44 L 75.0248 62.44 L 79.35 102.6897 L 75.2985 102.6897 L 75.2985 104.5385 L 91.3913 104.5385 L 91.3913 102.6897 L 87.2293 102.6897 L 87.2293 102.6897 ZM 28.4433 54.0492 L 12.3501 54.0492 L 12.3501 55.898 L 16.9079 55.898 L 16.9079 97.4753 C 16.9079 97.4753 17.5716 103.7322 12.3501 103.7322 C 7.1285 103.7322 7.6984 95.1032 7.6984 94.2501 C 7.6984 93.397 7.6984 9.2019 7.6984 9.2019 C 7.6984 9.2019 7.9833 2.0908 11.6859 2.0908 C 15.2741 2.0908 20.0206 11.7945 21.6075 30.5137 L 21.6075 33.7115 L 23.4593 33.7115 L 23.4593 1.1429 L 21.6075 1.1429 L 21.6075 3.8761 C 21.3739 4.0303 21.0611 4.1768 20.7058 4.1768 C 19.9459 4.1768 16.7178 0.2898 11.9704 0.2898 C 7.2233 0.2898 0.4823 2.6599 0.4823 12.3313 C 0.4823 22.0028 0.4823 89.9844 0.4823 89.9844 C 0.4823 89.9844 -0.5616 105.4385 12.3501 105.4385 C 12.3501 105.4385 16.2433 105.7235 20.4204 102.2153 C 20.4204 102.2153 22.7946 101.0791 22.7946 104.5854 L 24.7882 104.5854 L 24.7882 55.898 L 28.4433 55.898 L 28.4433 54.0492 L 28.4433 54.0492 Z"></path>
</svg>
